<svg width="19" height="16" viewBox="0 0 19 16" fill="none" xmlns="http://www.w3.org/2000/svg">
<path d="M1.25 7.74086C1.25 7.37333 1.52311 7.0696 1.87745 7.02152L1.97596 7.0149L14.7374 7.01548L10.1271 2.42398C9.84295 2.14109 9.84196 1.68144 10.1249 1.39732C10.382 1.13904 10.7853 1.11474 11.0699 1.325L11.1515 1.39511L17.0076 7.22604C17.0451 7.26333 17.0776 7.30368 17.1052 7.3463C17.113 7.35913 17.1209 7.37225 17.1285 7.38564C17.1354 7.39712 17.1416 7.40903 17.1475 7.42108C17.1557 7.43861 17.1637 7.45672 17.171 7.4752C17.1769 7.48945 17.1818 7.5033 17.1863 7.51727C17.1917 7.53459 17.1969 7.55305 17.2014 7.57179C17.2047 7.58487 17.2073 7.59746 17.2096 7.6101C17.2128 7.62891 17.2156 7.64837 17.2176 7.66807C17.2192 7.68309 17.2203 7.69797 17.2208 7.71287C17.221 7.7219 17.2212 7.73136 17.2212 7.74086L17.2208 7.76898C17.2202 7.78323 17.2193 7.79746 17.2179 7.81167L17.2212 7.74086C17.2212 7.78667 17.2169 7.83149 17.2088 7.87495C17.2069 7.88533 17.2047 7.89598 17.2022 7.90659C17.197 7.92845 17.1911 7.94949 17.1842 7.97013C17.1808 7.98038 17.1769 7.99133 17.1727 8.0022C17.1642 8.02404 17.155 8.04487 17.1449 8.06515C17.1402 8.07469 17.1349 8.08467 17.1294 8.09456C17.1203 8.11068 17.1109 8.126 17.1011 8.14094C17.0941 8.15151 17.0864 8.16251 17.0783 8.17334L17.072 8.18171C17.0525 8.20726 17.0312 8.23147 17.0085 8.25419L17.0077 8.25487L11.1516 14.0868C10.8675 14.3697 10.4078 14.3687 10.1249 14.0846C9.8677 13.8264 9.84511 13.423 10.0566 13.1392L10.127 13.058L14.7355 8.4674L1.97596 8.46682C1.57502 8.46682 1.25 8.1418 1.25 7.74086Z" fill="white" stroke="white" stroke-width="1.9359"/>
</svg>
